<svg width="32" height="32" xmlns="http://www.w3.org/2000/svg" xmlns:xlink="http://www.w3.org/1999/xlink">
  <defs>
    <filter x="-1.5%" y="-30.6%" width="103%" height="165.3%" filterUnits="objectBoundingBox" id="a">
      <feOffset dy="2" in="SourceAlpha" result="shadowOffsetOuter1"/>
      <feGaussianBlur stdDeviation="2" in="shadowOffsetOuter1" result="shadowBlurOuter1"/>
      <feColorMatrix values="0 0 0 0 0 0 0 0 0 0 0 0 0 0 0 0 0 0 0.2 0" in="shadowBlurOuter1" result="shadowMatrixOuter1"/>
      <feMerge>
        <feMergeNode in="shadowMatrixOuter1"/>
        <feMergeNode in="SourceGraphic"/>
      </feMerge>
    </filter>
    <path d="M23.557 10.97c-.033-.217-.066-.345-.066-.345s-.084.098-.222.284a7.923 7.923 0 0 0-.282-1.53 10.481 10.481 0 0 0-.336-.986c-1.076-3.04-3.456-5.438-3.477-6.278-.234.286-.402.728-.476 1.251-.55-.548-1.03-.946-1.321-1.219C15.86.734 16.037 0 16.037 0c-.001.001-2.83 3.157-1.603 6.448.503 1.35 1.284 2.129 2.108 2.808 1.186.977 2.462 1.747 3.134 3.714-.643-1.35-1.867-2.194-2.365-2.496.295.687.453 1.452.453 2.255a5.354 5.354 0 0 1-6.552 5.22c-.522-.1-.961-.26-1.327-.448-.818-.545-1.309-1.032-1.592-1.47l-.007-.013.094.035c.222.077.449.137.68.181 1.014.186 2.026.052 2.695-.318.846-.469 1.359-.818 1.775-.68l.008.002c.406.129.726-.265.436-.674-.287-.41-1.034-1-2.143-.836-.848.124-1.624.726-2.736.142-.068-.037-.136-.073-.208-.123-.074-.042.237.066.165.018a5.491 5.491 0 0 1-.698-.417c-.016-.014.167.052.151.04-.375-.278-.598-.523-.728-.738-.282-.502-.136-.95-.05-1.168.091-.195.332-.377.451-.425.144.07.232.124.232.124l-.1-.183c.013-.005.024-.004.037-.008a6.9 6.9 0 0 1 .55.282c.19.12.251.228.251.228s.05-.025.014-.13c-.014-.043-.072-.18-.261-.319l.012.002c.102.051.21.116.32.198.053-.173.15-.354.128-.678-.012-.228-.006-.288-.051-.376-.04-.076.022-.105.092-.026a.764.764 0 0 0-.06-.18v-.005s.04-.052.06-.071c.039-.042.094-.086.161-.133.271-.186.726-.397 1.103-.562.311-.136.568-.24.621-.27.045-.028.127-.085.221-.169.194-.175.437-.466.496-.857.006-.044.011-.089.012-.135l.001-.01v-.016-.008-.003l-.002-.023v-.002l-.002-.009-.001-.002c0-.003 0-.007-.002-.01-.045-.17-.337-.297-1.863-.44-.727-.067-1.005-.74-1.09-1.023l-.002.007-.003-.012a3.86 3.86 0 0 1 1.493-1.855c.039-.032-.156.008-.117-.024.046-.038.343-.145.399-.169.069-.029-.293-.167-.614-.133-.325.033-.394.068-.568.133.072-.064.302-.148.248-.148-.35.048-.787.231-1.16.44-.003-.038.006-.06.022-.107-.174.066-.6.334-.725.56.005-.053.008-.077.008-.13a2.215 2.215 0 0 0-.357.334l-.006.005C6.667 4.78 5.78 4.756 5.03 4.92l-.007-.007.009-.002c-.098-.072-.272-.234-.47-.524-.003-.003-.004-.006-.006-.01l-.012-.015a4.22 4.22 0 0 1-.31-.546c-.003-.005-.006-.008-.009-.008-.018-.002-.03.084-.046.061l-.003-.005c-.145-.337-.233-.883-.212-1.269l-.013.007c-.058.032-.317.198-.536.702-.046.103-.076.16-.106.216-.003.005-.002-.007 0-.026.007-.052.03-.159.024-.15l-.014.022c-.05.071-.146.165-.189.28-.04.103-.082.159-.113.287-.004.015-.003-.014 0-.048.003-.044.006-.096.002-.084a.676.676 0 0 0-.017.033c-.375.745-.549 1.73-.604 2.282a2.27 2.27 0 0 0-.018.406v.011c-.317.362-.533.67-.615.828-.41.633-.862 1.62-1.299 3.182 0 0 .249-.578.696-1.219-.365.829-.716 2.13-.786 4.134.012-.065.116-.566.338-1.225a10.38 10.38 0 0 0 .937 4.863c.501 1.1 1.656 3.333 4.476 5.076 0 0 .96.715 2.608 1.25.123.045.246.088.372.13-.04-.016-.078-.033-.115-.05.94.282 2.083.496 3.383.498 4.058.004 5.397-1.545 5.52-1.7.22-.207.384-.426.48-.644.078-.031.157-.066.236-.103.018-.006.034-.015.051-.022l.091-.043a8.485 8.485 0 0 0 1.713-1.072c1.1-.879 1.401-1.634 1.597-2.334.141-.413.153-.79.021-1.074.042-.066.085-.135.129-.21.673-1.086 1.414-2.844 1.434-4.649v-.004-.134c.001-.349-.026-.697-.089-1.04" id="b"/>
  </defs>
  <g transform="translate(4 2)" filter="url(#a)" fill="none" fill-rule="evenodd">
    <path d="M0 0h24v24H0z"/>
    <mask id="c" fill="#fff">
      <use xlink:href="#b"/>
    </mask>
    <g mask="url(#c)" fill="#0C0C0D" fill-opacity=".8">
      <path d="M0 0h24v24H0z"/>
    </g>
  </g>
</svg>
