<svg width="40" height="40" xmlns="http://www.w3.org/2000/svg" xmlns:xlink="http://www.w3.org/1999/xlink">
  <defs>
    <path d="M34.8 17.697s-.11.127-.288.366a10.213 10.213 0 0 0-.362-1.972 13.511 13.511 0 0 0-.433-1.271c-1.388-3.92-4.456-7.01-4.483-8.094-.301.37-.519.94-.614 1.613-.71-.706-1.327-1.22-1.703-1.571C24.962 4.947 25.189 4 25.189 4c0 .002-3.648 4.07-2.066 8.313.649 1.74 1.655 2.744 2.718 3.619 1.528 1.26 3.174 2.252 4.04 4.787-.83-1.739-2.406-2.828-3.048-3.216.38.885.584 1.87.584 2.906a6.902 6.902 0 0 1-8.446 6.729 6.347 6.347 0 0 1-1.712-.577c-1.054-.703-1.687-1.33-2.051-1.896l-.01-.017c.04.017.081.031.122.046.285.1.578.177.875.234 1.308.24 2.612.067 3.475-.41 1.091-.605 1.752-1.055 2.288-.878l.01.003c.524.166.937-.341.562-.868-.37-.53-1.332-1.289-2.762-1.078-1.093.16-2.094.936-3.527.183-.088-.048-.175-.094-.269-.158-.094-.055.307.085.214.022-.28-.136-.772-.432-.9-.537-.021-.018.216.067.194.05-.483-.357-.77-.673-.938-.95-.363-.647-.175-1.224-.064-1.506.117-.25.427-.485.58-.547.186.09.3.16.3.16l-.129-.236c.016-.006.03-.005.047-.011.163.07.52.252.71.363.246.156.324.295.324.295s.065-.033.017-.168c-.017-.055-.092-.232-.336-.41l.015.001c.132.067.27.15.413.256.069-.223.193-.457.165-.875-.016-.294-.008-.37-.066-.484-.052-.098.029-.135.119-.034a.984.984 0 0 0-.078-.231l.001-.007s.052-.067.076-.092c.051-.054.123-.11.209-.17.349-.24.935-.513 1.42-.725.402-.176.734-.31.802-.348.057-.037.164-.11.285-.218.25-.226.563-.6.64-1.105.007-.057.013-.115.015-.174l.001-.014v-.015-.015-.004c0-.01-.002-.02-.003-.029v-.003a.049.049 0 0 0-.003-.011.152.152 0 0 0-.003-.016c-.059-.22-.435-.383-2.401-.567-.938-.086-1.297-.954-1.406-1.32l-.003.01-.004-.016a4.976 4.976 0 0 1 1.925-2.39c.05-.042-.201.01-.15-.032.058-.048.441-.186.514-.217.089-.038-.378-.216-.791-.172-.42.042-.509.088-.733.172.093-.083.39-.192.32-.19-.453.061-1.015.297-1.497.565-.003-.048.009-.077.03-.137-.224.086-.774.43-.935.723.007-.069.011-.1.01-.17a2.855 2.855 0 0 0-.46.432l-.007.006c-1.3-.468-2.443-.5-3.41-.289a.087.087 0 0 0-.01-.008l.011-.003c-.127-.093-.35-.302-.606-.675l-.008-.013a5.44 5.44 0 0 1-.414-.724c-.005-.007-.008-.01-.012-.01-.023-.002-.039.108-.06.079L9.9 8.98c-.188-.434-.3-1.138-.274-1.636l-.016.009c-.075.041-.41.255-.691.905-.06.133-.098.206-.137.28-.004.005-.003-.01 0-.035.009-.066.038-.205.031-.194a.24.24 0 0 1-.018.03c-.065.091-.188.212-.244.36-.052.133-.105.205-.145.37-.006.02-.004-.017 0-.062.003-.056.008-.124.002-.108a.872.872 0 0 0-.021.042c-.485.961-.708 2.23-.78 2.942-.027.27-.032.46-.023.524v.014c-.409.467-.687.862-.792 1.067-.528.816-1.111 2.089-1.675 4.102 0 0 .321-.745.897-1.571-.47 1.068-.922 2.745-1.013 5.329.015-.083.15-.73.436-1.58-.081 1.724.119 3.86 1.208 6.27.645 1.418 2.134 4.296 5.77 6.543 0 0 1.236.922 3.362 1.612.158.057.316.113.479.167-.05-.02-.1-.042-.148-.064 1.212.363 2.685.64 4.361.641 5.232.005 6.957-1.991 7.116-2.19a2.64 2.64 0 0 0 .619-.83c.1-.042.202-.086.304-.133l.066-.03a10.939 10.939 0 0 0 2.325-1.438c1.418-1.131 1.806-2.105 2.059-3.007.181-.533.197-1.02.027-1.384.054-.085.109-.175.166-.271.867-1.401 1.823-3.666 1.849-5.993 0-.063.002-.12 0-.178.002-.45-.034-.9-.114-1.342-.043-.28-.086-.445-.086-.445z" id="a"/>
  </defs>
  <use fill="#4A4A4F" xlink:href="#a" fill-rule="evenodd"/>
</svg>
