<!-- This Source Code Form is subject to the terms of the Mozilla Public
   - License, v. 2.0. If a copy of the MPL was not distributed with this
   - file, You can obtain one at http://mozilla.org/MPL/2.0/. -->
<svg data-name="Flat (For Export)" xmlns="http://www.w3.org/2000/svg" viewBox="0 0 16 16">
  <path fill="context-fill" d="M0 0v16h16V0zm14.54 11.53h-2.89V7.62c0-1.2-.4-1.64-1.18-1.64-.94 0-1.32.68-1.32 1.62V10h.92v1.51H7.18V7.62C7.18 6.42 6.78 6 6 6c-.94 0-1.32.68-1.32 1.62V10H6v1.51H1.76V10h.92V6.12h-.92V4.61h2.9v1a2.3 2.3 0 0 1 2.09-1.14A2.22 2.22 0 0 1 9 6a2.29 2.29 0 0 1 2.23-1.48 2.23 2.23 0 0 1 2.37 2.33V10h.94z"/>
</svg>
