<svg width="16" height="16" xmlns="http://www.w3.org/2000/svg" class="svg-icon" fill="#000">
  <path d="M11.506 4.953a.654.654 0 0 0 .923 0l2.203-2.2a3.263 3.263 0 0 1-4.405 4.4L8.996 8.381l3.053 3.05 1.763.837.924 1.844-.924.923-1.847-.922-.839-1.76-3.054-3.05-5.453 5.445c-.256.265-.451.209-.808.115a.928.928 0 0 1-.692-.691c-.094-.356-.152-.551.115-.807l5.453-5.445-.723-.722H4.579L1.116 3.741 1 2.474l1.195-1.193 1.23.155 3.46 3.457v1.383L7.61 7l1.233-1.23a3.263 3.263 0 0 1 4.405-4.399l-2.203 2.2a.65.65 0 0 0 0 .922l.462.461z"/>
</svg>
